<mxfile host="drawio-plugin" modified="2022-06-05T13:34:13.466Z" agent="5.0 (Macintosh; Intel Mac OS X 12_3_1) AppleWebKit/537.36 (KHTML, like Gecko) Chrome/89.0.4389.114 Safari/537.36" etag="JEHQRgScIF5RXAO3dAl4" version="15.5.4" type="embed"><diagram id="23iRSUPoRavnBvh4doch" name="Page-1"><mxGraphModel dx="993" dy="732" grid="1" gridSize="10" guides="1" tooltips="1" connect="1" arrows="1" fold="1" page="1" pageScale="1" pageWidth="827" pageHeight="1169" background="#F4F1DE" math="0" shadow="0"><root><mxCell id="0"/><mxCell id="1" parent="0"/><mxCell id="62" value="" style="rounded=0;whiteSpace=wrap;html=1;" vertex="1" parent="1"><mxGeometry x="760" y="435" width="410" height="250" as="geometry"/></mxCell><mxCell id="63" value="" style="rounded=0;whiteSpace=wrap;html=1;" vertex="1" parent="1"><mxGeometry x="760" y="635" width="410" height="50" as="geometry"/></mxCell><mxCell id="65" value="home" style="ellipse;whiteSpace=wrap;html=1;aspect=fixed;fontSize=8;" vertex="1" parent="1"><mxGeometry x="770" y="640" width="40" height="40" as="geometry"/></mxCell><mxCell id="66" value="new" style="ellipse;whiteSpace=wrap;html=1;aspect=fixed;fontSize=8;" vertex="1" parent="1"><mxGeometry x="884.09" y="640" width="40" height="40" as="geometry"/></mxCell><mxCell id="67" value="delete" style="ellipse;whiteSpace=wrap;html=1;aspect=fixed;fontSize=8;" vertex="1" parent="1"><mxGeometry x="980" y="640" width="40" height="40" as="geometry"/></mxCell><mxCell id="68" value="gallery" style="ellipse;whiteSpace=wrap;html=1;aspect=fixed;fontSize=8;" vertex="1" parent="1"><mxGeometry x="1120" y="640" width="40" height="40" as="geometry"/></mxCell><mxCell id="69" value="print" style="ellipse;whiteSpace=wrap;html=1;aspect=fixed;fontSize=8;" vertex="1" parent="1"><mxGeometry x="934.09" y="640" width="40" height="40" as="geometry"/></mxCell><mxCell id="70" value="" style="aspect=fixed;html=1;points=[];align=center;image;fontSize=12;image=img/lib/azure2/general/Image.svg;" vertex="1" parent="1"><mxGeometry x="810" y="436.87" width="288.18" height="198.13" as="geometry"/></mxCell></root></mxGraphModel></diagram></mxfile>